<svg width="28" height="25" viewBox="0 0 28 25" fill="none" xmlns="http://www.w3.org/2000/svg">
<g filter="url(#filter0_d_2_147)">
<mask id="mask0_2_147" style="mask-type:alpha" maskUnits="userSpaceOnUse" x="4" y="0" width="20" height="20">
<path fill-rule="evenodd" clip-rule="evenodd" d="M23 4H21V13H8V15C8 15.55 8.45 16 9 16H20L24 20V5C24 4.45 23.55 4 23 4ZM19 10V1C19 0.45 18.55 0 18 0H5C4.45 0 4 0.45 4 1V15L8 11H18C18.55 11 19 10.55 19 10Z" fill="white"/>
</mask>
<g mask="url(#mask0_2_147)">
<rect x="1" y="-3" width="26" height="26" fill="white"/>
</g>
</g>
<defs>
<filter id="filter0_d_2_147" x="0" y="0" width="28" height="28" filterUnits="userSpaceOnUse" color-interpolation-filters="sRGB">
<feFlood flood-opacity="0" result="BackgroundImageFix"/>
<feColorMatrix in="SourceAlpha" type="matrix" values="0 0 0 0 0 0 0 0 0 0 0 0 0 0 0 0 0 0 127 0" result="hardAlpha"/>
<feOffset dy="4"/>
<feGaussianBlur stdDeviation="2"/>
<feComposite in2="hardAlpha" operator="out"/>
<feColorMatrix type="matrix" values="0 0 0 0 0 0 0 0 0 0 0 0 0 0 0 0 0 0 0.25 0"/>
<feBlend mode="normal" in2="BackgroundImageFix" result="effect1_dropShadow_2_147"/>
<feBlend mode="normal" in="SourceGraphic" in2="effect1_dropShadow_2_147" result="shape"/>
</filter>
</defs>
</svg>
